HIERARCHY
ROOT root
{
	OFFSET	0	13.1	24.9
	CHANNELS 6  Xposition Yposition Zposition Xrotation Yrotation Zrotation
	JOINT spine_1
	{
		OFFSET	0	9.99999	0
		CHANNELS 3  Xrotation Yrotation Zrotation
		JOINT spine_2
		{
			OFFSET	0	112	-10
			CHANNELS 3  Xrotation Yrotation Zrotation
			JOINT spine_3
			{
				OFFSET	0	206.5	19.3
				CHANNELS 3  Xrotation Yrotation Zrotation
				JOINT spine_4
				{
					OFFSET	0	110.4	14.6
					CHANNELS 3  Xrotation Yrotation Zrotation
					JOINT neck_1
					{
						OFFSET	0	71.8	-50.3
						CHANNELS 3  Xrotation Yrotation Zrotation
						JOINT neck_2
						{
							OFFSET	0	86.2	-25.8
							CHANNELS 3  Xrotation Yrotation Zrotation
							JOINT head_ee
							{
								OFFSET	0	179.8	-8.7
								CHANNELS 3  Xrotation Yrotation Zrotation
								End Site
								{
									OFFSET	1	0	0
								}
							}
						}
					}
					JOINT left_clavicle
					{
						OFFSET	-43.2	22.4	-70.8
						CHANNELS 3  Xrotation Yrotation Zrotation
						JOINT left_shoulder
						{
							OFFSET	-93.9	-5.79999	48.7
							CHANNELS 3  Xrotation Yrotation Zrotation
							JOINT left_elbow
							{
								OFFSET	-291.4	-30.8	15.2
								CHANNELS 3  Xrotation Yrotation Zrotation
								JOINT left_lowarm_twist
								{
									OFFSET	-110.7	-3.89999	13.6
									CHANNELS 3  Xrotation Yrotation Zrotation
									JOINT left_hand
									{
										OFFSET	-110.7	-3.89999	13.6
										CHANNELS 3  Xrotation Yrotation Zrotation
										JOINT left_ee
										{
											OFFSET	-80.8	-5.10001	12.1
											CHANNELS 3  Xrotation Yrotation Zrotation
											End Site
											{
												OFFSET	1	0	0
											}
										}
									}
								}
							}
						}
					}
					JOINT right_clavicle
					{
						OFFSET	43.2	22.4	-70.8
						CHANNELS 3  Xrotation Yrotation Zrotation
						JOINT right_shoulder
						{
							OFFSET	93.9	-5.79999	48.7
							CHANNELS 3  Xrotation Yrotation Zrotation
							JOINT right_elbow
							{
								OFFSET	291.4	-30.8	15.2
								CHANNELS 3  Xrotation Yrotation Zrotation
								JOINT right_lowarm_twist
								{
									OFFSET	110.7	-3.89999	13.6
									CHANNELS 3  Xrotation Yrotation Zrotation
									JOINT right_hand
									{
										OFFSET	110.7	-3.89999	13.6
										CHANNELS 3  Xrotation Yrotation Zrotation
										JOINT right_ee
										{
											OFFSET	80.8	-5.10001	12.1
											CHANNELS 3  Xrotation Yrotation Zrotation
											End Site
											{
												OFFSET	1	0	0
											}
										}
									}
								}
							}
						}
					}
				}
			}
		}
	}
	JOINT left_hip
	{
		OFFSET	-82.8	-127.5	0.300001
		CHANNELS 3  Xrotation Yrotation Zrotation
		JOINT left_knee
		{
			OFFSET	-28.2	-396.7	2.2
			CHANNELS 3  Xrotation Yrotation Zrotation
			JOINT left_ankle
			{
				OFFSET	-11.7	-411.3	35.4
				CHANNELS 3  Xrotation Yrotation Zrotation
				JOINT left_toes
				{
					OFFSET	0	-60	-88.6
					CHANNELS 3  Xrotation Yrotation Zrotation
					JOINT left_foot_ee
					{
						OFFSET	-22.5	-16.5	-42.2
						CHANNELS 3  Xrotation Yrotation Zrotation
						End Site
						{
							OFFSET	1	0	0
						}
					}
				}
			}
		}
	}
	JOINT right_hip
	{
		OFFSET	82.8	-127.5	0.300001
		CHANNELS 3  Xrotation Yrotation Zrotation
		JOINT right_knee
		{
			OFFSET	28.2	-396.7	2.2
			CHANNELS 3  Xrotation Yrotation Zrotation
			JOINT right_ankle
			{
				OFFSET	11.7	-411.3	35.4
				CHANNELS 3  Xrotation Yrotation Zrotation
				JOINT right_toes
				{
					OFFSET	0	-60	-88.6
					CHANNELS 3  Xrotation Yrotation Zrotation
					JOINT right_foot_ee
					{
						OFFSET	22.5	-16.5	-42.2
						CHANNELS 3  Xrotation Yrotation Zrotation
						End Site
						{
							OFFSET	1	0	0
						}
					}
				}
			}
		}
	}
}
MOTION
Frames: 12
Frame Time: 0.02
480.362 687.395 -508.113 -30.3674 -86.6493 -19.2926 -4.06234 -1.0427 -5.64619 -4.04488 -0.681904 -5.70085 -3.94767 0.925691 -5.66649 -3.99245 0.0206927 -5.74132 -6.29863 4.11689 5.78849 -6.2092 3.37343 6.60933 -0.0 0.0 -0.0 10.9034 11.2372 20.3945 9.81475 -28.7123 81.0321 1.00964 -26.5713 0.238408 57.4006 -1.54805 -6.86302 -2.40528 26.8007 -2.74999 -0.0 0.0 -0.0 8.15497 -4.60855 -15.7576 -21.9479 32.4234 -43.2408 0.686922 18.7925 -0.113674 -17.4377 0.929295 -2.01823 -5.79167 -27.2866 21.7164 0.0 0.0 0.0 -5.66177 6.75427 -12.9898 1.90669 -0.0831997 -0.280737 17.7882 23.4855 -2.55364 36.0165 -0.0 -0.0 -0.0 0.0 -0.0 1.76096 -0.305229 -9.30312 -9.34075 -0.270441 -1.40642 -25.6073 -29.4331 -4.12013 36.396 -0.0 -0.0 0.0 0.0 0.0 
484.607 687.075 -510.793 -25.3563 -87.3574 -14.1199 -4.20593 -0.762302 -5.70314 -4.18793 -0.398463 -5.73993 -4.11909 1.2271 -5.62175 -4.16301 0.325387 -5.74452 -5.50212 3.00441 7.21059 -5.3572 0.158511 7.8529 -0.0 0.0 -0.0 11.0997 11.0143 20.795 9.86757 -28.5533 81.1377 1.05009 -27.482 0.256787 57.9446 -1.59439 -6.91511 -2.33482 25.7034 -2.91869 -0.0 0.0 -0.0 8.29912 -4.11176 -16.0573 -23.1166 31.6536 -42.3081 0.678388 18.5752 -0.110941 -18.1322 0.978743 -2.09213 -5.93336 -26.8016 22.9767 0.0 0.0 0.0 -6.16512 4.89569 -13.3387 -0.843528 0.0338128 0.125033 18.6545 23.8133 -2.67328 40.1441 -0.0 -0.0 -0.0 0.0 -0.0 1.7189 0.988705 -9.11799 -10.3837 -0.286314 -1.56567 -25.8687 -29.1921 -4.15549 33.9331 -0.0 -0.0 0.0 0.0 0.0 
486.114 683.826 -512.235 -17.8244 -87.338 -6.5977 -4.26162 -0.828346 -5.70201 -4.24366 -0.464447 -5.74298 -4.16753 1.1691 -5.6422 -4.21183 0.264898 -5.75559 -5.03351 4.13075 6.68874 -4.91316 2.56121 7.52507 -0.0 0.0 -0.0 10.9764 12.1957 20.3931 10.8193 -28.9049 81.7713 1.09318 -28.4359 0.276989 58.1079 -1.6084 -6.93066 -2.3294 28.09 -1.6784 -0.0 0.0 -0.0 8.44116 -3.24257 -16.3704 -24.2913 31.4289 -41.2453 0.686006 18.7692 -0.113379 -12.8436 0.625258 -1.51505 -4.90646 -26.424 17.1111 0.0 0.0 0.0 -5.96979 4.76671 -13.2155 -2.01569 0.0777307 0.299557 21.5376 24.9727 -3.06893 39.6167 -0.0 -0.0 -0.0 0.0 -0.0 1.89797 2.38478 -9.25273 -11.2971 -0.297832 -1.70535 -26.2345 -30.067 -4.23891 37.068 -0.0 -0.0 0.0 0.0 0.0 
486.675 682.204 -512.07 -24.6019 -87.3153 -13.2377 -4.18539 -0.787414 -5.76838 -4.16699 -0.419394 -5.80662 -4.09489 1.2233 -5.69215 -4.13994 0.310572 -5.81343 -5.16949 3.15162 6.51284 -5.05288 0.910407 7.1768 -0.0 0.0 -0.0 10.2644 10.3216 19.316 12.3384 -29.6747 82.6353 1.19237 -30.5677 0.325845 59.7737 -1.75382 -7.08701 -2.0002 28.6129 0.357419 -0.0 0.0 -0.0 8.58383 -2.30286 -16.6887 -25.0269 29.9512 -40.9554 0.732379 19.9407 -0.128749 -11.4768 0.542718 -1.36086 -4.31373 -24.7374 14.7867 0.0 0.0 0.0 -5.86399 3.73759 -13.3269 -2.25043 0.0860957 0.334612 22.8218 25.7692 -3.2488 40.1381 -0.0 -0.0 -0.0 0.0 -0.0 2.78411 5.46651 -9.80491 -12.1094 -0.306202 -1.82969 -26.0138 -29.8605 -4.19742 38.8945 -0.0 -0.0 0.0 0.0 0.0 
493.151 681.163 -510.234 -18.2127 -87.0311 -6.77385 -4.26637 -0.963805 -5.82059 -4.24773 -0.592126 -5.86989 -4.15551 1.0806 -5.80011 -4.20239 0.152684 -5.89761 -5.80508 3.67355 5.69951 -5.71772 2.559 6.43657 -0.0 0.0 -0.0 10.2663 11.6666 19.1546 12.4504 -30.9411 82.8217 1.23889 -31.5366 0.349844 58.7398 -1.66303 -6.99047 -2.40192 28.9328 -1.64073 -0.0 0.0 -0.0 8.95324 -1.72328 -17.4479 -26.0903 30.423 -40.2896 0.709653 19.3687 -0.121105 -10.0279 0.459276 -1.19535 -4.22408 -27.1163 12.7015 0.0 0.0 0.0 -5.50455 4.30422 -13.5683 -3.90007 0.140816 0.581862 23.9353 26.522 -3.4061 38.2823 -0.0 -0.0 -0.0 0.0 -0.0 3.45219 5.71187 -10.1852 -15.7023 -0.322059 -2.38064 -25.5301 -30.3566 -4.13361 39.4454 -0.0 -0.0 0.0 0.0 0.0 
493.188 677.736 -511.483 -32.7295 -87.9596 -21.1862 -4.32551 -0.98544 -5.88946 -4.30644 -0.609359 -5.93999 -4.2106 1.08943 -5.87118 -4.25863 0.15024 -5.96917 -4.184 3.42355 6.7134 -4.06114 1.13068 7.44842 -0.0 0.0 -0.0 10.4254 11.6323 19.4522 12.6892 -29.9452 82.8397 1.29637 -32.7065 0.380409 58.681 -1.65791 -6.98492 -1.92477 28.8207 0.862217 -0.0 0.0 -0.0 9.07471 -1.29771 -17.7095 -27.6285 30.6208 -39.0631 0.792093 21.4239 -0.149841 -8.14919 0.357372 -0.977724 -3.66538 -25.9434 10.2715 0.0 0.0 0.0 -5.24787 2.24712 -13.6698 -5.17383 0.178179 0.77377 26.0327 26.476 -3.66791 37.7796 -0.0 -0.0 -0.0 0.0 -0.0 4.02469 6.02011 -10.0239 -16.4295 -0.321063 -2.49221 -25.381 -30.0714 -4.10139 39.5679 -0.0 -0.0 0.0 0.0 0.0 
497.885 678.395 -511.502 -24.0668 -86.4788 -12.6452 -4.45665 -1.13392 -5.84065 -4.43801 -0.760631 -5.90068 -4.32594 0.944254 -5.87418 -4.37406 0.00639412 -5.94932 -3.33273 3.77528 7.35905 -3.18576 1.15663 8.19137 -0.0 0.0 -0.0 10.6437 12.894 19.6799 12.5223 -29.8871 82.6242 1.37714 -34.2998 0.424996 57.7609 -1.57869 -6.89757 -1.93415 28.7399 0.773316 -0.0 0.0 -0.0 9.27005 -0.420016 -18.1403 -28.2689 30.3514 -38.1682 0.798982 21.5932 -0.152367 -6.51401 0.274543 -0.785714 -3.53027 -26.1231 9.39739 0.0 0.0 0.0 -4.82091 0.0456094 -13.6325 -7.16037 0.227906 1.07456 28.4322 27.4342 -3.98453 36.3525 -0.0 -0.0 -0.0 0.0 -0.0 4.68991 5.38387 -9.91608 -17.7196 -0.315812 -2.69007 -25.5246 -29.3504 -4.10458 39.7887 -0.0 -0.0 0.0 0.0 0.0 
500.121 678.753 -510.103 -19.5126 -86.3138 -8.2449 -4.56283 -1.25497 -5.776 -4.54472 -0.885528 -5.84383 -4.4201 0.817309 -5.85373 -4.46786 -0.115762 -5.90918 -3.38181 4.36623 7.09347 -3.24758 2.44725 8.00061 -0.0 0.0 -0.0 10.5249 13.2537 19.4124 12.3331 -30.0411 82.4535 1.44783 -35.6463 0.465514 56.4778 -1.47058 -6.77367 -2.19965 28.9208 -0.562877 -0.0 0.0 -0.0 9.42666 0.849539 -18.5081 -28.9239 30.6454 -37.4553 0.719805 19.6247 -0.124494 -4.99589 0.202588 -0.605429 -3.54337 -26.3467 9.33769 0.0 0.0 0.0 -4.79448 -1.4613 -13.6547 -9.6348 0.275209 1.45129 28.3713 22.7035 -3.86781 33.1434 -0.0 -0.0 -0.0 0.0 -0.0 3.88218 4.258 -9.69606 -18.2537 -0.312334 -2.77195 -25.1985 -29.8284 -4.06519 39.282 -0.0 -0.0 0.0 0.0 0.0 
498.71 669.929 -508.572 -12.6165 -84.4624 -1.77401 -4.64409 -1.29725 -5.97523 -4.62471 -0.915114 -6.04532 -4.49103 0.854012 -6.05422 -4.54212 -0.111003 -6.11293 -1.11624 5.44221 6.48575 -1.00558 4.54467 7.53452 -0.0 0.0 -0.0 10.5844 12.9298 19.5668 12.9436 -30.4168 82.7535 1.60042 -38.4046 0.557431 55.9813 -1.4295 -6.72509 -2.02949 28.621 0.203736 -0.0 0.0 -0.0 9.7693 2.573 -19.2756 -28.0948 29.5389 -37.6043 0.58685 16.2097 -0.0835727 -2.5328 0.0960988 -0.309116 -3.55531 -28.0186 8.40218 0.0 0.0 0.0 -3.44215 -4.13711 -13.8604 -13.6207 0.317082 2.06132 33.0159 19.1213 -4.31714 30.8146 -0.0 -0.0 -0.0 0.0 -0.0 4.52293 2.37345 -9.30025 -20.0285 -0.295299 -3.04372 -25.1435 -30.8326 -4.08473 40.1195 -0.0 -0.0 0.0 0.0 0.0 
502.423 670.48 -505.39 -8.03448 -83.4944 2.9424 -4.88349 -1.39003 -6.15164 -4.863 -0.996551 -6.22722 -4.71363 0.852217 -6.24853 -4.76804 -0.143284 -6.30452 -0.940205 6.08126 6.51239 -0.826084 5.64423 7.63745 -0.0 0.0 -0.0 10.7149 13.1925 19.7659 12.8901 -30.7619 82.6526 1.66662 -39.5397 0.599066 55.0453 -1.35321 -6.63255 -2.37703 28.4522 -1.75206 -0.0 0.0 -0.0 10.2684 4.1648 -20.3758 -27.6224 27.9996 -37.5933 0.508181 14.1301 -0.062983 -1.06524 0.0387489 -0.130515 -3.56864 -28.7367 8.04357 0.0 0.0 0.0 -2.07608 -7.38108 -14.4962 -19.3611 0.302693 2.94159 31.3844 15.291 -4.08772 29.8145 -0.0 -0.0 -0.0 0.0 -0.0 4.44176 0.0197435 -9.51395 -21.6019 -0.273164 -3.28413 -25.2405 -30.9632 -4.10432 36.4917 -0.0 -0.0 0.0 0.0 0.0 
507.641 668.402 -499.685 -0.860838 -83.6142 10.1871 -5.13606 -1.30537 -6.00072 -5.11651 -0.921602 -6.07126 -4.97869 0.907135 -6.07343 -5.03011 -0.061557 -6.14024 -1.34683 4.57009 6.48415 -1.23712 3.0109 7.42663 -0.0 0.0 -0.0 10.6409 13.797 19.5422 12.6187 -30.3345 82.4255 1.68831 -39.9037 0.612927 52.8422 -1.17971 -6.40995 -2.68275 28.6193 -3.3138 -0.0 0.0 -0.0 9.86202 6.149 -19.5416 -24.03 26.7765 -40.0624 0.541037 15.0036 -0.0712468 -0.0115266 0.000406131 -0.00141605 -3.43044 -28.671 7.33088 0.0 0.0 0.0 -1.25528 -6.15468 -16.0743 -25.8818 0.179648 3.93409 29.4148 15.0818 -3.87132 28.1451 -0.0 -0.0 -0.0 0.0 -0.0 5.33874 1.60756 -9.60383 -25.4114 -0.192298 -3.86302 -25.1143 -29.5919 -4.04515 33.3892 -0.0 -0.0 0.0 0.0 0.0 
513.764 669.111 -494.422 0.423967 -81.2186 11.8141 -5.44686 -1.46035 -6.16041 -5.4264 -1.06617 -6.24042 -5.26535 0.849708 -6.27343 -5.32019 -0.149671 -6.32872 0.49293 5.73015 5.09964 0.569194 5.96721 6.08377 -0.0 0.0 -0.0 10.4436 13.8642 19.1781 12.379 -31.1178 82.8751 1.79469 -41.6343 0.682401 49.9211 -0.963166 -6.10495 -3.19526 27.2112 -6.88872 -0.0 0.0 -0.0 10.8164 7.23859 -21.621 -20.8012 23.8291 -39.824 0.365906 10.274 -0.0328946 1.73264 -0.0578172 0.213734 -3.15393 -26.2718 7.19366 0.0 0.0 0.0 2.7916 -13.0071 -16.0164 -36.7827 -0.274874 5.54261 23.2254 19.0837 -3.19493 34.3709 -0.0 -0.0 -0.0 0.0 -0.0 3.96303 -0.241249 -10.6466 -26.397 -0.16512 -4.01183 -25.3429 -29.3482 -4.07534 26.291 -0.0 -0.0 0.0 0.0 0.0 
